<svg width="463" height="65" viewBox="0 0 463 65" xmlns="http://www.w3.org/2000/svg"><defs><linearGradient x1="18.84%" y1="101.154%" x2="72.463%" y2="13.111%" id="a"><stop stop-color="#DD5237" offset="0%"/><stop stop-color="#EA6445" offset="29%"/><stop stop-color="#F97A56" offset="72%"/><stop stop-color="#FF825C" offset="100%"/></linearGradient></defs><g fill="none"><path d="M49.623 3.726h19.565c4.384 0 7.905 1.289 10.563 3.866 2.658 2.578 3.979 6.148 3.961 10.71 0 4.551-1.329 8.113-3.987 10.684-2.658 2.572-6.17 3.861-10.537 3.867H58.987v16.06h-9.364V3.726zm9.304 8.207v12.652h9.053a6.404 6.404 0 004.513-1.631 6.041 6.041 0 001.726-4.652 6.145 6.145 0 00-1.726-4.677 6.352 6.352 0 00-4.53-1.666l-9.036-.026zm57.899 24.182H95.39a6.628 6.628 0 001.847 4.652 6.395 6.395 0 004.677 1.682c3.142 0 5.049-1.139 5.73-3.452l8.881.423a11.288 11.288 0 01-4.859 7.301 16.07 16.07 0 01-9.493 2.84c-4.833 0-8.728-1.47-11.685-4.41-2.957-2.94-4.442-6.879-4.453-11.815 0-4.988 1.47-8.944 4.41-11.866 2.94-2.923 6.763-4.382 11.47-4.376 4.55 0 8.172 1.378 10.865 4.134 2.692 2.756 4.041 6.55 4.047 11.383v3.504zm-14.99-12.134a6.291 6.291 0 00-4.557 1.657 6.723 6.723 0 00-1.907 4.617h12.556a6.956 6.956 0 00-1.656-4.617 5.756 5.756 0 00-4.436-1.657zm37.869-6.585v8.518a8.777 8.777 0 00-6.041 1.96 6.593 6.593 0 00-2.227 5.194v15.845h-8.82V17.698h8.561v3.564c1.623-2.583 4.465-3.872 8.527-3.866zm8.94-15.215a5.247 5.247 0 015.308 5.316 5.049 5.049 0 01-1.536 3.711 5.126 5.126 0 01-3.772 1.537 5.014 5.014 0 01-3.745-1.537 5.092 5.092 0 01-1.51-3.71 5.118 5.118 0 011.596-3.772 5.04 5.04 0 013.66-1.545zm4.402 46.732h-8.812V17.698h8.812v31.215zm43.056-42.02H178.47v42.02h-3.564V6.893h-17.631V3.726h38.835zm26.201 28.014h-24.941c.057 3.561 1.145 6.398 3.262 8.509a10.84 10.84 0 007.914 3.081c5.307 0 8.932-2.416 10.08-6.697l3.383.242c-1.45 5.73-6.404 9.424-13.343 9.424a14.291 14.291 0 01-10.692-4.229c-2.78-2.842-4.166-6.706-4.16-11.59 0-4.894 1.38-8.751 4.1-11.59a14.058 14.058 0 0110.632-4.23c4.315 0 7.663 1.39 10.08 4.109 2.416 2.718 3.685 6.274 3.685 10.805v2.166zm-24.941-2.84h21.618c0-6.757-3.745-11.219-10.503-11.219-6.343-.008-10.848 4.16-11.115 11.22zm75.107-10.805a12.341 12.341 0 013.202 8.812v18.84h-3.383V30.556c0-5.79-3.314-9.597-8.57-9.597a8.371 8.371 0 00-6.54 2.84 9.95 9.95 0 00-2.47 6.757v18.356h-3.451V30.557c0-5.73-3.383-9.597-8.458-9.597a8.578 8.578 0 00-6.636 2.84 9.916 9.916 0 00-2.477 6.757v18.356h-3.383V18.397h3.202v5.256c1.45-3.202 5.014-5.8 9.838-5.8A10.745 10.745 0 01253.7 24.5a11.22 11.22 0 0110.624-6.645 10.598 10.598 0 018.147 3.408zm38.646.846c2.84 2.84 4.23 6.637 4.23 11.53s-1.39 8.751-4.23 11.59a14.102 14.102 0 01-10.563 4.238c-5.558 0-9.666-2.538-11.538-6.223V64.31h-3.357V18.397h3.193v5.92c1.933-3.866 6.162-6.463 11.72-6.463a14.153 14.153 0 0110.545 4.254zm-22.101 10.503v2.114c0 7.664 4.53 11.772 11.219 11.772 3.143.08 6.18-1.144 8.388-3.383 2.236-2.287 3.323-5.428 3.323-9.416 0-3.987-1.087-7.249-3.323-9.493a11.375 11.375 0 00-8.388-3.383c-6.689.018-11.22 4.126-11.22 11.79zm37.739 16.302h-3.383V2h3.383zM358.09 29.41v19.503h-3.452v-4.625c-2.235 3.452-5.618 5.178-10.149 5.178-5.851 0-9.717-3.02-9.717-8.389 0-5.497 3.745-8.457 11.167-8.88l8.7-.544V29.47c0-5.489-2.538-8.57-7.613-8.57-5.074 0-7.965 3.504-7.965 7.603l-3.452-.12a10.184 10.184 0 013.098-7.397 11.047 11.047 0 018.268-3.201c7.189.034 11.115 4.323 11.115 11.624zm-3.391 5.134l-8.397.484c-5.426.299-8.142 2.292-8.147 5.98 0 3.677 2.295 5.489 6.817 5.489 5.619 0 9.727-3.262 9.727-10.563v-1.39zm26.571 11.288v3.081a22.283 22.283 0 01-3.865.302c-5.308 0-8.51-2.96-8.51-9.234l.06-18.658h-5.799v-2.926h5.8l.06-10.805h3.452l-.069 10.805h8.751v2.96h-8.751l-.12 18.055c0 4.522 1.932 6.757 5.79 6.757a26.227 26.227 0 003.202-.337zm9.175-37.308a2.477 2.477 0 11-3.496-3.503c2.046-2.538 6.033 1.45 3.496 3.503zm-.06 40.39h-3.375V18.396h3.374v30.516zm32.121-27.652c2.235 2.236 3.322 5.179 3.322 8.872v18.78h-3.383V30.556c0-5.73-3.616-9.597-8.932-9.597a9.157 9.157 0 00-6.826 2.84 9.623 9.623 0 00-2.659 6.757v18.356h-3.374V18.397h3.236v5.178c1.45-3.141 5.178-5.739 10.15-5.739a11.133 11.133 0 018.466 3.426zm37.618 3.021v-5.886h3.263v32.57c0 4.315-1.33 7.664-3.927 10.14-2.598 2.478-6.041 3.686-10.356 3.686-7.767 0-12.946-4.108-14.37-10.356l3.453-.121c.906 4.643 5.316 7.603 10.813 7.603 6.594.035 10.986-3.953 10.986-10.727v-7.957c-1.872 3.685-5.98 6.222-11.53 6.222a14.343 14.343 0 01-10.632-4.229c-2.779-2.842-4.168-6.705-4.168-11.59 0-4.893 1.39-8.69 4.168-11.53a14.386 14.386 0 0110.632-4.315c5.567.026 9.804 2.624 11.668 6.49zm-19.806-.06c-2.175 2.226-3.262 5.428-3.262 9.493 0 8.034 4.893 12.798 11.711 12.798 6.585 0 11.22-4.108 11.22-11.771V32.61c0-7.663-4.471-11.771-11.22-11.771a11.418 11.418 0 00-8.449 3.383z" fill="#212841"/><path d="M24.95 9.83V4.004a1.027 1.027 0 011.726-.725l6.04 6.042a1.018 1.018 0 01-.724 1.726h-5.8A1.234 1.234 0 0124.95 9.83zm10.356 6.282v28.963a2.77 2.77 0 01-2.77 2.78H2.77A2.779 2.779 0 010 45.074V3.495A2.77 2.77 0 012.77.725h17.14a2.27 2.27 0 012.27 2.27v8.077a2.77 2.77 0 002.77 2.736h8.078a2.27 2.27 0 012.27 2.304h.008zm-23.733 7.871a.31.31 0 00-.32-.32h-2.01a1.726 1.726 0 00-1.804 1.796v5.36c0 .336-.155.508-.474.508H6.17a.328.328 0 00-.32.328v1.89c0 .178.142.324.32.328h.794c.319 0 .474.173.474.51v5.359a1.726 1.726 0 001.804 1.795h1.976a.31.31 0 00.32-.32v-1.475a.32.32 0 00-.32-.32H10.14c-.31 0-.474-.18-.474-.535v-4.746a1.32 1.32 0 00-1.381-1.346H8.18v-.32h.104a1.32 1.32 0 001.38-1.407v-4.746c0-.354.165-.535.475-.535h1.08a.32.32 0 00.318-.32l.035-1.484zm10.002 7.672a.328.328 0 00-.319-.328h-.794c-.32 0-.475-.172-.475-.509v-5.36a1.786 1.786 0 00-.5-1.294 1.726 1.726 0 00-1.303-.5h-1.977a.32.32 0 00-.319.32v1.475a.328.328 0 00.32.32h1.113c.319 0 .474.18.474.534v4.755c-.012.37.124.727.38.993.264.264.628.405 1.001.388h.104v.346h-.104a1.329 1.329 0 00-1 .388 1.364 1.364 0 00-.38.992v4.747c0 .354-.156.535-.475.535h-1.114a.328.328 0 00-.319.32v1.475c0 .176.143.32.32.32h2.01c.486.023.959-.158 1.303-.501.335-.347.515-.813.5-1.295v-5.394c0-.336.156-.509.476-.509h.794a.328.328 0 00.319-.328l-.035-1.89z" fill="url(#a)" transform="translate(0 2)"/></g></svg>